<?xml version="1.0" encoding="UTF-8"?>
<svg xmlns="http://www.w3.org/2000/svg" xmlns:xlink="http://www.w3.org/1999/xlink" width="822.9pt" height="822pt" viewBox="0 0 822.9 822" version="1.1">
<g id="surface1">
<path style=" stroke:none;fill-rule:nonzero;fill:rgb(89.399719%,11.799622%,15.299988%);fill-opacity:1;" d="M 540.210938 650.320313 L 525.378906 533.46875 L 485.828125 533.46875 L 470.996094 650.320313 L 402.234375 650.320313 L 465.605469 169.882813 L 545.152344 169.882813 L 608.972656 650.320313 Z M 363.585938 629.648438 C 348.753906 645.824219 327.632813 654.363281 298.867188 654.363281 C 270.554688 654.363281 250.328125 646.273438 235.050781 630.097656 C 219.769531 613.914063 211.679688 592.34375 211.679688 565.378906 L 211.679688 255.722656 C 211.679688 228.757813 218.871094 207.183594 234.148438 191.003906 C 248.980469 174.378906 270.105469 166.285156 298.417969 166.285156 C 327.183594 166.285156 347.40625 174.378906 362.6875 191.003906 C 377.515625 207.183594 386.054688 228.757813 386.054688 255.722656 L 386.054688 329.878906 L 320.890625 329.878906 L 320.890625 250.328125 C 320.890625 238.195313 310.554688 229.207031 298.417969 229.207031 C 286.285156 229.207031 277.296875 238.644531 277.296875 250.777344 L 277.296875 569.871094 C 277.296875 581.558594 286.285156 590.996094 298.417969 590.996094 C 310.554688 590.996094 320.441406 581.558594 320.441406 569.421875 L 320.441406 481.785156 L 298.417969 481.785156 L 298.417969 423.359375 L 386.054688 423.359375 L 386.054688 564.929688 C 386.054688 591.894531 378.863281 613.46875 363.585938 629.648438 Z M 772.113281 410.328125 C 772.113281 382.910156 794.585938 360.890625 821.996094 360.890625 L 809.414063 299.316406 C 784.246094 309.65625 755.035156 297.96875 744.695313 272.351563 C 733.910156 246.734375 746.046875 217.972656 771.664063 207.183594 L 736.605469 155.050781 C 717.28125 174.378906 685.820313 174.378906 666.496094 155.050781 C 646.722656 135.726563 646.722656 104.265625 666.496094 84.941406 L 614.363281 49.886719 C 603.578125 75.503906 574.363281 87.1875 549.195313 76.851563 C 523.578125 66.515625 511.894531 37.300781 522.230469 11.683594 L 460.660156 -0.449219 C 460.660156 26.964844 438.640625 49.4375 410.773438 49.4375 C 383.359375 49.4375 361.339844 26.964844 361.339844 -0.449219 L 299.765625 11.683594 C 310.105469 37.300781 297.96875 66.515625 272.800781 76.851563 C 247.183594 87.1875 217.972656 75.503906 207.632813 49.886719 L 155.5 84.941406 C 174.824219 104.265625 174.824219 135.726563 155.5 155.050781 C 136.175781 174.378906 104.714844 174.378906 84.941406 155.050781 L 50.335938 207.183594 C 75.503906 217.972656 87.636719 246.734375 77.300781 272.351563 C 66.964844 297.96875 37.753906 309.65625 12.132813 299.316406 L 0 360.890625 C 27.414063 360.890625 49.886719 382.910156 49.886719 410.328125 C 49.886719 438.191406 27.414063 460.214844 0 460.214844 L 12.132813 521.785156 C 37.753906 511.445313 66.964844 523.582031 77.300781 548.75 C 87.636719 574.367188 75.503906 603.128906 50.335938 613.914063 L 84.941406 666.050781 C 104.714844 646.726563 136.175781 646.726563 155.5 666.050781 C 174.824219 685.375 174.824219 716.835938 155.5 736.160156 L 207.632813 771.214844 C 217.972656 745.597656 247.183594 733.464844 272.800781 744.25 C 297.96875 754.585938 310.105469 783.796875 299.765625 809.414063 L 361.339844 821.550781 C 361.339844 794.136719 383.359375 771.664063 410.773438 771.664063 C 438.640625 771.664063 460.660156 794.136719 460.660156 821.550781 L 522.230469 809.414063 C 511.894531 783.796875 523.578125 754.585938 549.195313 744.25 C 574.363281 733.464844 603.578125 745.597656 614.363281 771.214844 L 666.496094 736.160156 C 646.722656 716.835938 646.722656 685.375 666.496094 666.050781 C 685.820313 646.726563 717.28125 646.726563 736.605469 666.050781 L 771.664063 613.914063 C 746.046875 603.128906 733.910156 574.367188 744.695313 548.75 C 755.035156 523.582031 784.246094 511.445313 809.863281 521.785156 L 821.996094 460.214844 C 794.585938 460.214844 772.113281 438.191406 772.113281 410.328125 "/>
<path style=" stroke:none;fill-rule:nonzero;fill:rgb(89.399719%,11.799622%,15.299988%);fill-opacity:1;" d="M 506.054688 406.730469 C 485.828125 406.730469 469.648438 423.359375 469.648438 443.585938 C 469.648438 463.808594 485.828125 480.4375 506.054688 480.4375 C 525.828125 480.4375 542.007813 463.808594 542.007813 443.585938 C 542.007813 423.359375 525.828125 406.730469 506.054688 406.730469 "/>
</g>
</svg>
